<?xml version="1.0" standalone="no"?>
<!DOCTYPE svg PUBLIC "-//W3C//DTD SVG 20010904//EN"
 "http://www.w3.org/TR/2001/REC-SVG-20010904/DTD/svg10.dtd">
<svg version="1.0" xmlns="http://www.w3.org/2000/svg"
 width="700.000000pt" height="700.000000pt" viewBox="0 0 700.000000 700.000000"
 preserveAspectRatio="xMidYMid meet">
<metadata>
Created by potrace 1.14, written by Peter Selinger 2001-2017
</metadata>
<g transform="translate(0.000000,700.000000) scale(0.100000,-0.100000)"
fill="#000000" stroke="none">
<path d="M182 6338 c-22 -4 -54 -14 -70 -22 -41 -21 -90 -83 -103 -128 -6 -24
-9 -217 -7 -520 3 -452 4 -485 22 -518 21 -39 56 -73 101 -98 27 -15 81 -17
520 -19 l490 -3 50 24 c52 24 91 67 114 123 10 25 13 142 13 510 1 426 -1 482
-16 518 -21 50 -60 91 -111 118 -39 20 -53 21 -502 21 -254 1 -479 -2 -501 -6z"/>
<path d="M2332 6110 c-54 -19 -98 -61 -124 -118 -18 -40 -20 -68 -20 -308 0
-251 1 -266 22 -309 24 -50 80 -101 125 -114 17 -5 1017 -10 2261 -10 l2232
-1 53 28 c39 20 62 41 84 77 l30 48 2 272 c2 167 -1 284 -7 302 -16 44 -67
101 -113 125 l-42 22 -2230 1 c-1967 0 -2234 -2 -2273 -15z"/>
<path d="M169 4150 c-70 -19 -121 -61 -149 -125 -17 -37 -18 -81 -19 -515 -1
-533 -1 -538 67 -602 69 -65 65 -65 597 -63 525 1 518 1 579 61 16 16 38 49
49 73 18 42 19 68 19 523 l0 479 -26 53 c-15 30 -39 62 -54 72 -73 49 -48 47
-558 49 -264 0 -491 -2 -505 -5z"/>
<path d="M2348 3929 c-41 -11 -91 -44 -114 -76 -42 -56 -46 -93 -46 -363 0
-244 1 -259 22 -304 25 -52 70 -92 127 -111 29 -10 495 -13 2247 -13 2387 -1
2276 -3 2336 51 14 12 36 40 50 62 l25 40 0 280 c0 154 -4 289 -9 300 -5 11
-10 23 -10 28 -1 4 -19 25 -40 47 -71 73 106 68 -2351 67 -1215 0 -2222 -4
-2237 -8z"/>
<path d="M135 1951 c-51 -23 -106 -81 -122 -128 -10 -27 -12 -154 -10 -527 l2
-491 27 -41 c32 -50 67 -79 116 -95 55 -19 961 -18 1017 0 52 17 102 65 127
120 19 41 20 67 20 525 0 525 1 517 -59 583 -63 70 -44 68 -588 70 -456 2
-493 1 -530 -16z"/>
<path d="M2332 1737 c-50 -16 -119 -87 -132 -138 -8 -27 -12 -137 -12 -300 0
-236 2 -259 20 -295 25 -50 63 -87 110 -110 35 -18 134 -18 2277 -18 2118 0
2242 1 2276 17 45 22 83 61 108 112 19 37 20 59 18 320 l-2 280 -32 47 c-22
31 -50 54 -85 72 l-52 26 -2230 -1 c-1549 -1 -2241 -4 -2264 -12z"/>
</g>
</svg>
